<?xml version="1.0" standalone="no"?>
<!DOCTYPE svg PUBLIC "-//W3C//DTD SVG 1.1//EN" "http://www.w3.org/Graphics/SVG/1.1/DTD/svg11.dtd" >
<svg xmlns="http://www.w3.org/2000/svg">
<metadata>
This is a custom SVG webfont generated by Font Squirrel.
Copyright   : Typeface  your company 2007 All Rights Reserved
Designer    : Ed Merritt
Foundry     : Ten by Twenty
Foundry URL : httpwwwtenbytwentycom
</metadata>
<defs>
<font id="MunroSmallRegular" horiz-adv-x="1000" >
<font-face units-per-em="2048" ascent="1638" descent="-410" />
<missing-glyph horiz-adv-x="600" />
<glyph unicode=" "  horiz-adv-x="600" />
<glyph unicode="&#x09;" horiz-adv-x="600" />
<glyph unicode="&#xa0;" horiz-adv-x="600" />
<glyph unicode="!" horiz-adv-x="400" d="M1 0h200v200h-200v-200zM1 400h200v600h-200v-600z" />
<glyph unicode="&#x22;" horiz-adv-x="800" d="M0 800h200v400h-200v-400zM400 800h200v400h-200v-400z" />
<glyph unicode="#" horiz-adv-x="1200" d="M-1 200h1000v200h-1000v-200zM-1 600h1000v200h-1000v-200zM199 0h200v1000h-200v-1000zM199 0h200v1000h-200v-1000zM599 0h200v1000h-200v-1000z" />
<glyph unicode="$" horiz-adv-x="800" d="M0 0h400v200h200v200h-200v200h-200v200h400v200h-400v-200h-200v-200h200v-200h200v-200h-400v-200zM200 -1h200v-200h-200v200zM200 1000v200h200v-200h-200z" />
<glyph unicode="%" horiz-adv-x="1600" d="M0 600h400v400h-400v-400zM199 0v200h200v200h200v200h200v200h200v200h200v-200h-200v-200h-200v-200h-200v-200h-200v-200h-200zM1000 0h400v400h-400v-400z" />
<glyph unicode="&#x26;" horiz-adv-x="1200" d="M-1 0h600v200h200v-200h200v200h-200v200h200v200h-200v-200h-200h-200v200h200v200h-200v200h-200v-200h-200v-200h200v-200h-200v-200v-200zM0 200h201v200h200v-200h199h-600zM199 600v200h200v-200h-200z" />
<glyph unicode="'" horiz-adv-x="400" d="M0 799h200v400h-200v-400z" />
<glyph unicode="(" horiz-adv-x="600" d="M0 0h200v1000h-200v-1000zM200 -1v-200h200v200h-200zM200 1000h200v200h-200v-200z" />
<glyph unicode=")" horiz-adv-x="600" d="M0 -1v-200h200v200h-200zM0 1000h200v200h-200v-200zM200 0h200v1000h-200v-1000z" />
<glyph unicode="*" horiz-adv-x="800" d="M0 600v200h200v200h-200v200h200v-200h400v200h-200v-200v-200h200v-200h-200v200h-200v-200h-200z" />
<glyph unicode="+" horiz-adv-x="800" d="M0 399v200h200v200h200v-200h200v-200h-200v-200h-200v200h-200z" />
<glyph unicode="," horiz-adv-x="400" d="M0 199v-400h200v400h-200z" />
<glyph unicode="-" horiz-adv-x="800" d="M0 400v200h600v-200h-600z" />
<glyph unicode="." horiz-adv-x="400" d="M0 0h200v200h-200v-200z" />
<glyph unicode="/" horiz-adv-x="800" d="M1 -200h200v400h200v600h200v399h-200v-399h-200v-600h-200v-400z" />
<glyph unicode="0" d="M0 200v600h200v200h400v-200h200v-600h-200v-200h-400v200h-200zM200 200h400v600h-400v-600z" />
<glyph unicode="1" horiz-adv-x="600" d="M0 600v200h200v200h200v-1000h-200v600h-200z" />
<glyph unicode="2" horiz-adv-x="800" d="M0 0v399h200v200h200v200h-400v200h400v-200h200v-200h-200v-200h-200v-199h400v-200h-600z" />
<glyph unicode="3" horiz-adv-x="800" d="M0 0h400v200h200v200h-200v200h200v200h-200v200h-400v-200h400v-200h-400v-200h400v-200h-400v-200z" />
<glyph unicode="4" d="M0 400h400v-400h200v400h200v200h-200v200h-200v-200h-200v400h-200v-600z" />
<glyph unicode="5" horiz-adv-x="800" d="M0 0v200h400v199h-400v599h600v-200h-400v-199h200v-200h200v-199h-200v-200h-400z" />
<glyph unicode="6" d="M0 200h200v-200h400v200h200v200h-200v200h-400v200h400v200h-400v-200h-200v-600zM200 200v200h400v-200h-400z" />
<glyph unicode="7" horiz-adv-x="800" d="M0 2h200v397h200v200h200v397h-600v-200h400v-197h-200v-200h-200v-397z" />
<glyph unicode="8" d="M0 200h200v-200h400v200h200v199h-200v200h200v200h-200v200h-400v-200h-200v-200h200v-200h-200v-199zM200 199v199h400v-199h-400zM200 599v200h400v-200h-400z" />
<glyph unicode="9" d="M0 599h200v-200h400v-199h-400v-200h400v200h200v599h-200v200h-400v-200h-200v-200zM200 599v200h400v-200h-400z" />
<glyph unicode=":" horiz-adv-x="400" d="M0 0h200v200h-200v-200zM0 400h200v200h-200v-200z" />
<glyph unicode=";" horiz-adv-x="400" d="M0 200v-400h200v400h-200zM0 400h200v200h-200v-200z" />
<glyph unicode="&#x37e;" horiz-adv-x="400" d="M0 200v-400h200v400h-200zM0 400h200v200h-200v-200z" />
<glyph unicode="&#x3c;" horiz-adv-x="1014" d="M87 674v83l840 484v-167l-625 -359l625 -355v-167z" />
<glyph unicode="=" horiz-adv-x="1014" d="M87 491v140h840v-140h-840zM87 803v140h840v-140h-840z" />
<glyph unicode="&#x3e;" horiz-adv-x="1014" d="M87 193v167l625 355l-625 359v167l840 -484v-83z" />
<glyph unicode="?" horiz-adv-x="800" d="M0 800h400v-200h-200v-200h200v200h200v200h-200v200h-400v-200zM200 0h200v200h-200v-200z" />
<glyph unicode="@" horiz-adv-x="1600" d="M0 400h200v600h-200v-600zM200 200h200v200h-200v-200zM200 1000h200v200h-200v-200zM200 1000h200v200h-200v-200zM400 0h600v200h-600v-200zM400 600h200v200h-200v-200zM400 1200h600v200h-600v-200zM600 400h200v200h-200v-200zM600 800h200v200h-200v-200zM800 400 h200v400h-200v-400zM1000 200h200v200h-200v-200zM1000 1000h200v200h-200v-200zM1200 400h200v600h-200v-600z" />
<glyph unicode="A" d="M0 0v800h200v200h400v-200h200v-800h-200v400h-400v-400h-200zM200 600h400v200h-400v-200z" />
<glyph unicode="B" d="M0 0v999h600v-200h200v-200h-200v-200h200v-199h-200v-200h-600zM200 200h400v199h-400v-199zM200 599h400v200h-400v-200z" />
<glyph unicode="C" horiz-adv-x="800" d="M0 200h200v-200h400v200h-400v600h400v200h-400v-200h-200v-600z" />
<glyph unicode="D" d="M0 0v1000h600v-200h200v-600h-200v-200h-600zM200 200h400v600h-400v-600z" />
<glyph unicode="E" horiz-adv-x="800" d="M0 0v1000h600v-200h-400v-200h400v-200h-400v-200h400v-200h-600z" />
<glyph unicode="F" horiz-adv-x="800" d="M0 0v1000h600v-200h-400v-200h400v-200h-400v-400h-200z" />
<glyph unicode="G" d="M0 200h200v-200h400v200h200v400h-400v-200h200v-200h-400v600h400v202h-400v-200h-200v-602z" />
<glyph unicode="H" d="M0 0v1000h200v-400h400v400h200v-1000h-200v400h-400v-400h-200z" />
<glyph unicode="I" horiz-adv-x="400" d="M0 0v1000h200v-1000h-200z" />
<glyph unicode="J" horiz-adv-x="600" d="M0 0v200h200v600h-200v200h400v-800h-200v-200h-200z" />
<glyph unicode="K" d="M0 0h200v400h200v-200h200v-200h200v200h-200v200h-200v200h200v200h200v200h-200v-200h-200v-200h-200v400h-200v-1000z" />
<glyph unicode="L" horiz-adv-x="800" d="M0 0h600v200h-400v800h-200v-1000z" />
<glyph unicode="M" horiz-adv-x="1200" d="M0 0v1000h200v-200h200v-200h200v200h200v200h200v-1000h-200v600h-200v-200h-200v200h-200v-600h-200z" />
<glyph unicode="N" d="M0 0v1000h200v-200h200v-200h200v400h200v-1000h-200v400h-200v200h-200v-600h-200z" />
<glyph unicode="O" d="M0 200v600h200v200h400v-200h200v-600h-200v-200h-400v200h-200zM200 200h400v600h-400v-600z" />
<glyph unicode="P" d="M0 0v1000h600v-200h200v-200h-200v-200h-400v-400h-200zM200 600h400v200h-400v-200z" />
<glyph unicode="Q" d="M0 200v600h200v200h400v-200h200v-400h-200v400h-400v-600h200v-200h-200v200h-200zM400 200h200v-200h200v200h-200v200h-200v-200z" />
<glyph unicode="R" d="M0 0v1000h600v-200h200v-200h-200v-200h-400v-400h-200zM200 600h400v200h-400v-200zM600 0h200v400h-200v-400z" />
<glyph unicode="S" horiz-adv-x="800" d="M0 0h400v200h200v199h-200v200h-200v200h400v200h-400v-200h-200v-200h200v-200h200v-199h-400v-200z" />
<glyph unicode="T" horiz-adv-x="800" d="M0 800h200v-800h200v800h200v200h-600v-200z" />
<glyph unicode="U" d="M0 200h200v-200h400v200h200v800h-200v-800h-400v800h-200v-800z" />
<glyph unicode="V" horiz-adv-x="1200" d="M0 600h200v-400h200v-200h200v200h200v400h200v400h-200v-400h-200v-400h-200v400h-200v400h-200v-400z" />
<glyph unicode="W" horiz-adv-x="1200" d="M0 0h200v200h200v200h200v-200h200v-200h200v1000h-200v-600h-200v200h-200v-200h-200v600h-200v-1000z" />
<glyph unicode="X" horiz-adv-x="1200" d="M0 0h200v200h200v200h200v-200h200v-200h200v200h-200v200h-200v200h200v200h200v199h-200v-199h-200v-200h-200v200h-200v199h-200v-199h200v-200h200v-200h-200v-200h-200v-200z" />
<glyph unicode="Y" horiz-adv-x="1200" d="M0 800h200v-200h200v-600h200v600h200v200h200v200h-200v-200h-200v-200h-200v200h-200v200h-200v-200z" />
<glyph unicode="Z" horiz-adv-x="800" d="M0 0v400h200v200h200v200h-400v200h600v-400h-200v-200h-200v-200h400v-200h-600z" />
<glyph unicode="[" horiz-adv-x="600" d="M0 -200v1399h200v-1399h-200zM200 -1h200v-200h-200v200zM200 999v200h200v-200h-200z" />
<glyph unicode="\" horiz-adv-x="800" d="M1 800h200v-600h200v-400h200v400h-200v600h-200v399h-200v-399z" />
<glyph unicode="]" horiz-adv-x="600" d="M0 -1h200v-200h-200v200zM0 1000v200h200v-200h-200zM200 -200v1400h200v-1400h-200z" />
<glyph unicode="^" horiz-adv-x="800" d="M0 800h200v200h-200v-200zM200 1000h200v200h-200v-200zM400 800h200v200h-200v-200z" />
<glyph unicode="_" horiz-adv-x="1200" d="M0 0h1000v-200h-1000v200z" />
<glyph unicode="a" d="M0 0v800h200v200h400v-200h200v-800h-200v400h-400v-400h-200zM200 600h400v200h-400v-200z" />
<glyph unicode="b" d="M0 0v999h600v-200h200v-200h-200v-200h200v-199h-200v-200h-600zM200 200h400v199h-400v-199zM200 599h400v200h-400v-200z" />
<glyph unicode="c" horiz-adv-x="800" d="M0 200h200v-200h400v200h-400v600h400v200h-400v-200h-200v-600z" />
<glyph unicode="d" d="M0 0v1000h600v-200h200v-600h-200v-200h-600zM200 200h400v600h-400v-600z" />
<glyph unicode="e" horiz-adv-x="800" d="M0 0v1000h600v-200h-400v-200h400v-200h-400v-200h400v-200h-600z" />
<glyph unicode="f" horiz-adv-x="800" d="M0 0v1000h600v-200h-400v-200h400v-200h-400v-400h-200z" />
<glyph unicode="g" d="M0 200h200v-200h400v200h200v400h-400v-200h200v-200h-400v600h400v202h-400v-200h-200v-602z" />
<glyph unicode="h" d="M0 0v1000h200v-400h400v400h200v-1000h-200v400h-400v-400h-200z" />
<glyph unicode="i" horiz-adv-x="400" d="M0 0v1000h200v-1000h-200z" />
<glyph unicode="j" horiz-adv-x="600" d="M0 0v200h200v600h-200v200h400v-800h-200v-200h-200z" />
<glyph unicode="k" d="M0 0h200v400h200v-200h200v-200h200v200h-200v200h-200v200h200v200h200v200h-200v-200h-200v-200h-200v400h-200v-1000z" />
<glyph unicode="l" horiz-adv-x="800" d="M0 0h600v200h-400v800h-200v-1000z" />
<glyph unicode="m" horiz-adv-x="1200" d="M0 0v1000h200v-200h200v-200h200v200h200v200h200v-1000h-200v600h-200v-200h-200v200h-200v-600h-200z" />
<glyph unicode="n" d="M0 0v1000h200v-200h200v-200h200v400h200v-1000h-200v400h-200v200h-200v-600h-200z" />
<glyph unicode="o" d="M0 200v600h200v200h400v-200h200v-600h-200v-200h-400v200h-200zM200 200h400v600h-400v-600z" />
<glyph unicode="p" d="M0 0v1000h600v-200h200v-200h-200v-200h-400v-400h-200zM200 600h400v200h-400v-200z" />
<glyph unicode="q" d="M0 200v600h200v200h400v-200h200v-400h-200v400h-400v-600h200v-200h-200v200h-200zM400 200h200v-200h200v200h-200v200h-200v-200z" />
<glyph unicode="r" d="M0 0v1000h600v-200h200v-200h-200v-200h-400v-400h-200zM200 600h400v200h-400v-200zM600 0h200v400h-200v-400z" />
<glyph unicode="s" horiz-adv-x="800" d="M0 0h400v200h200v199h-200v200h-200v200h400v200h-400v-200h-200v-200h200v-200h200v-199h-400v-200z" />
<glyph unicode="t" horiz-adv-x="800" d="M0 800h200v-800h200v800h200v200h-600v-200z" />
<glyph unicode="u" d="M0 200h200v-200h400v200h200v800h-200v-800h-400v800h-200v-800z" />
<glyph unicode="v" horiz-adv-x="1200" d="M0 600h200v-400h200v-200h200v200h200v400h200v400h-200v-400h-200v-400h-200v400h-200v400h-200v-400z" />
<glyph unicode="w" horiz-adv-x="1200" d="M0 0h200v200h200v200h200v-200h200v-200h200v1000h-200v-600h-200v200h-200v-200h-200v600h-200v-1000z" />
<glyph unicode="x" horiz-adv-x="1200" d="M0 0h200v200h200v200h200v-200h200v-200h200v200h-200v200h-200v200h200v200h200v199h-200v-199h-200v-200h-200v200h-200v199h-200v-199h200v-200h200v-200h-200v-200h-200v-200z" />
<glyph unicode="y" horiz-adv-x="1200" d="M0 800h200v-200h200v-600h200v600h200v200h200v200h-200v-200h-200v-200h-200v200h-200v200h-200v-200z" />
<glyph unicode="z" horiz-adv-x="800" d="M0 0v400h200v200h200v200h-400v200h600v-400h-200v-200h-200v-200h400v-200h-600z" />
<glyph unicode="{" horiz-adv-x="800" d="M0 400v200h200v400h200v200h200v-200h-200v-400h-200v-200h200v-400h200v-200h-200v200h-200v400h-200z" />
<glyph unicode="|" horiz-adv-x="800" d="M200 -200v1400h200v-1400h-200z" />
<glyph unicode="}" horiz-adv-x="800" d="M0 1v200h200v399h200v200h-200v400h-200v200h200v-200h200v-400h200v-200h-200v-399h-200v-200h-200z" />
<glyph unicode="~" horiz-adv-x="1200" d="M0 400h200v200h-200v-200zM200 600h200v200h-200v-200zM400 400h200v200h-200v-200zM600 200h200v200h-200v-200zM800 400h200v200h-200v-200z" />
<glyph unicode="&#xa3;" d="M0 0v200h200v599h200v200h400v-200h-400v-200h200v-200h-200v-199h400v-200h-800z" />
<glyph unicode="&#xa9;" horiz-adv-x="1600" d="M0 400h200v600h-200v-600zM200 200h200v200h-200v-200zM200 1000h200v200h-200v-200zM200 1000h200v200h-200v-200zM400 0h600v200h-600v-200zM400 600h200v200h-200v-200zM400 1200h600v200h-600v-200zM600 400h400v200h-400v-200zM600 800h400v200h-400v-200zM1000 200 h200v200h-200v-200zM1000 1000h200v200h-200v-200zM1200 400h200v600h-200v-600z" />
<glyph unicode="&#xaa;" d="M0 0v800h200v200h400v-200h200v-800h-200v400h-400v-400h-200zM200 600h400v200h-400v-200z" />
<glyph unicode="&#xab;" horiz-adv-x="1200" d="M0 400h200v200h-200v-200zM200 200h200v200h-200v-200zM200 600h200v200h-200v-200zM600 400h200v200h-200v-200zM800 200h200v200h-200v-200zM800 600h200v200h-200v-200z" />
<glyph unicode="&#xac;" horiz-adv-x="1014" d="M87 667v100h840v-491l-1 -1h-98v392h-741z" />
<glyph unicode="&#xad;" horiz-adv-x="800" d="M0 400v200h600v-200h-600z" />
<glyph unicode="&#xae;" horiz-adv-x="1600" d="M0 400h200v600h-200v-600zM200 200h200v200h-200v-200zM200 1000h200v200h-200v-200zM200 1000h200v200h-200v-200zM400 0h600v200h-600v-200zM400 400h200v400h-200v-400zM400 1200h600v200h-600v-200zM600 800h400v200h-400v-200zM1000 200h200v200h-200v-200z M1000 1000h200v200h-200v-200zM1200 400h200v600h-200v-600z" />
<glyph unicode="&#xb0;" horiz-adv-x="800" d="M0 1000h200v-200h200v200h200v200h-200v200h-200v-200h-200v-200zM200 1000v200h200v-200h-200z" />
<glyph unicode="&#xb2;" horiz-adv-x="800" d="M0 0v399h200v200h200v200h-400v200h400v-200h200v-200h-200v-200h-200v-199h400v-200h-600z" />
<glyph unicode="&#xb3;" horiz-adv-x="800" d="M0 0h400v200h200v200h-200v200h200v200h-200v200h-400v-200h400v-200h-400v-200h400v-200h-400v-200z" />
<glyph unicode="&#xb9;" horiz-adv-x="600" d="M0 600v200h200v200h200v-1000h-200v600h-200z" />
<glyph unicode="&#xba;" d="M0 200v600h200v200h400v-200h200v-600h-200v-200h-400v200h-200zM200 200h400v600h-400v-600z" />
<glyph unicode="&#xbb;" horiz-adv-x="1200" d="M0 200h200v200h-200v-200zM0 600h200v200h-200v-200zM200 400h200v200h-200v-200zM600 200h200v200h-200v-200zM600 600h200v200h-200v-200zM800 400h200v200h-200v-200z" />
<glyph unicode="&#xc2;" d="M0 0v800h200v200h400v-200h200v-800h-200v400h-400v-400h-200zM100 1122h200v200h-200v-200zM200 600h400v200h-400v-200zM300 1322h200v200h-200v-200zM500 1122h200v200h-200v-200z" />
<glyph unicode="&#xc3;" d="M-100 1322h200v200h-200v-200zM0 0v800h200v200h400v-200h200v-800h-200v400h-400v-400h-200zM100 1522h200v200h-200v-200zM200 600h400v200h-400v-200zM300 1322h200v200h-200v-200zM500 1122h200v200h-200v-200zM700 1322h200v200h-200v-200z" />
<glyph unicode="&#xc5;" d="M0 0v800h200v200h400v-200h200v-800h-200v400h-400v-400h-200zM100 1180h200v-200h200v200h200v200h-200v200h-200v-200h-200v-200zM200 600h400v200h-400v-200zM300 1180v200h200v-200h-200z" />
<glyph unicode="&#xca;" horiz-adv-x="800" d="M0 0v1000h600v-200h-400v-200h400v-200h-400v-200h400v-200h-600zM0 1122h200v200h-200v-200zM200 1322h200v200h-200v-200zM400 1122h200v200h-200v-200z" />
<glyph unicode="&#xce;" horiz-adv-x="400" d="M-200 1122h200v200h-200v-200zM0 0v1000h200v-1000h-200zM0 1322h200v200h-200v-200zM200 1122h200v200h-200v-200z" />
<glyph unicode="&#xd1;" d="M-100 1322h200v200h-200v-200zM0 0v1000h200v-200h200v-200h200v400h200v-1000h-200v400h-200v200h-200v-600h-200zM100 1522h200v200h-200v-200zM300 1322h200v200h-200v-200zM500 1122h200v200h-200v-200zM700 1322h200v200h-200v-200z" />
<glyph unicode="&#xd4;" d="M0 200v600h200v200h400v-200h200v-600h-200v-200h-400v200h-200zM100 1122h200v200h-200v-200zM200 200h400v600h-400v-600zM300 1322h200v200h-200v-200zM500 1122h200v200h-200v-200z" />
<glyph unicode="&#xd5;" d="M-100 1322h200v200h-200v-200zM0 200v600h200v200h400v-200h200v-600h-200v-200h-400v200h-200zM100 1522h200v200h-200v-200zM200 200h400v600h-400v-600zM300 1322h200v200h-200v-200zM500 1122h200v200h-200v-200zM700 1322h200v200h-200v-200z" />
<glyph unicode="&#xdb;" d="M0 200h200v-200h400v200h200v800h-200v-800h-400v800h-200v-800zM100 1122h200v200h-200v-200zM300 1322h200v200h-200v-200zM500 1122h200v200h-200v-200z" />
<glyph unicode="&#xe2;" d="M0 0v800h200v200h400v-200h200v-800h-200v400h-400v-400h-200zM100 1122h200v200h-200v-200zM200 600h400v200h-400v-200zM300 1322h200v200h-200v-200zM500 1122h200v200h-200v-200z" />
<glyph unicode="&#xe3;" d="M-100 1322h200v200h-200v-200zM0 0v800h200v200h400v-200h200v-800h-200v400h-400v-400h-200zM100 1522h200v200h-200v-200zM200 600h400v200h-400v-200zM300 1322h200v200h-200v-200zM500 1122h200v200h-200v-200zM700 1322h200v200h-200v-200z" />
<glyph unicode="&#xe5;" d="M0 0v800h200v200h400v-200h200v-800h-200v400h-400v-400h-200zM100 1322h200v-200h200v200h200v200h-200v200h-200v-200h-200v-200zM200 600h400v200h-400v-200zM300 1322v200h200v-200h-200z" />
<glyph unicode="&#xea;" horiz-adv-x="800" d="M0 0v1000h600v-200h-400v-200h400v-200h-400v-200h400v-200h-600zM0 1122h200v200h-200v-200zM200 1322h200v200h-200v-200zM400 1122h200v200h-200v-200z" />
<glyph unicode="&#xee;" horiz-adv-x="400" d="M-200 1122h200v200h-200v-200zM0 0v1000h200v-1000h-200zM0 1322h200v200h-200v-200zM200 1122h200v200h-200v-200z" />
<glyph unicode="&#xf1;" d="M-100 1322h200v200h-200v-200zM0 0v1000h200v-200h200v-200h200v400h200v-1000h-200v400h-200v200h-200v-600h-200zM100 1522h200v200h-200v-200zM300 1322h200v200h-200v-200zM500 1122h200v200h-200v-200zM700 1322h200v200h-200v-200z" />
<glyph unicode="&#xf4;" d="M0 200v600h200v200h400v-200h200v-600h-200v-200h-400v200h-200zM100 1122h200v200h-200v-200zM200 200h400v600h-400v-600zM300 1322h200v200h-200v-200zM500 1122h200v200h-200v-200z" />
<glyph unicode="&#xf5;" d="M-100 1322h200v200h-200v-200zM0 200v600h200v200h400v-200h200v-600h-200v-200h-400v200h-200zM100 1522h200v200h-200v-200zM200 200h400v600h-400v-600zM300 1322h200v200h-200v-200zM500 1122h200v200h-200v-200zM700 1322h200v200h-200v-200z" />
<glyph unicode="&#xf7;" horiz-adv-x="1200" d="M0 600v200h400v400h200v-400h400v-200h-400v-400h-200v400h-400zM400 399h200v200h-200v-200zM400 800h200v200h-200v-200z" />
<glyph unicode="&#xfb;" d="M0 200h200v-200h400v200h200v800h-200v-800h-400v800h-200v-800zM100 1122h200v200h-200v-200zM300 1322h200v200h-200v-200zM500 1122h200v200h-200v-200z" />
<glyph unicode="&#x152;" horiz-adv-x="1800" d="M0 200v600h200v200h400v-200h200v-600h-200v-200h-400v200h-200zM200 200h400v600h-400v-600zM1000 0v1000h600v-200h-400v-200h400v-200h-400v-200h400v-200h-600z" />
<glyph unicode="&#x153;" horiz-adv-x="1800" d="M0 200v600h200v200h400v-200h200v-600h-200v-200h-400v200h-200zM200 200h400v600h-400v-600zM1000 0v1000h600v-200h-400v-200h400v-200h-400v-200h400v-200h-600z" />
<glyph unicode="&#x2c6;" horiz-adv-x="800" d="M0 800h200v200h-200v-200zM200 1000h200v200h-200v-200zM400 800h200v200h-200v-200z" />
<glyph unicode="&#x2013;" horiz-adv-x="1108" d="M56 419v120h996v-120h-996z" />
<glyph unicode="&#x2014;" horiz-adv-x="2048" d="M0 419v120h2048v-120h-2048z" />
<glyph unicode="&#x2018;" horiz-adv-x="400" d="M0 1200h200v400h-200v-400z" />
<glyph unicode="&#x2019;" horiz-adv-x="400" d="M0 1200h200v400h-200v-400z" />
<glyph unicode="&#x201c;" horiz-adv-x="800" d="M0 1200h200v400h-200v-400zM400 1200h200v400h-200v-400z" />
<glyph unicode="&#x201d;" horiz-adv-x="800" d="M0 1200h200v400h-200v-400zM400 1200h200v400h-200v-400z" />
<glyph unicode="&#x2026;" horiz-adv-x="1200" d="M0 0h200v200h-200v-200zM400 0h200v200h-200v-200zM800 0h200v200h-200v-200z" />
<glyph unicode="&#x2039;" horiz-adv-x="1014" d="M87 674v83l840 484v-167l-625 -359l625 -355v-167z" />
<glyph unicode="&#x203a;" horiz-adv-x="1014" d="M87 193v167l625 355l-625 359v167l840 -484v-83z" />
<glyph unicode="&#x20ac;" d="M0 200h200v-200h600v200h-600v200h400v200h-400v200h600v200h-600v-200h-200v-600z" />
<glyph unicode="&#x2122;" horiz-adv-x="2000" d="M0 800h200v-800h200v800h200v200h-600v-200zM800 0v1000h200v-200h200v-200h200v200h200v200h200v-1000h-200v600h-200v-200h-200v200h-200v-600h-200z" />
<glyph unicode="&#xe000;" d="M0 1000h1000v-1000h-1000v1000z" />
<glyph unicode="&#xfb01;" horiz-adv-x="1200" d="M0 0v1000h600v-200h-400v-200h400v-200h-400v-400h-200zM800 0v1000h200v-1000h-200z" />
<glyph unicode="&#xfb02;" horiz-adv-x="1600" d="M0 0v1000h600v-200h-400v-200h400v-200h-400v-400h-200zM800 0h600v200h-400v800h-200v-1000z" />
<glyph unicode="&#xfb03;" horiz-adv-x="2000" d="M0 0v1000h600v-200h-400v-200h400v-200h-400v-400h-200zM800 0v1000h600v-200h-400v-200h400v-200h-400v-400h-200zM1600 0v1000h200v-1000h-200z" />
<glyph unicode="&#xfb04;" horiz-adv-x="2400" d="M0 0v1000h600v-200h-400v-200h400v-200h-400v-400h-200zM800 0v1000h600v-200h-400v-200h400v-200h-400v-400h-200zM1600 0h600v200h-400v800h-200v-1000z" />
</font>
</defs>
</svg>
